<svg id="Layer_1" data-name="Layer 1" xmlns="http://www.w3.org/2000/svg" xmlns:xlink="http://www.w3.org/1999/xlink" viewBox="0 0 1598.79 228.02"><defs><style>.cls-1,.cls-2,.cls-3,.cls-4{fill-rule:evenodd;}.cls-1{fill:url(#linear-gradient);}.cls-2{fill:url(#linear-gradient-2);}.cls-3{fill:url(#linear-gradient-3);}.cls-4{fill:url(#radial-gradient);}.cls-5,.cls-6,.cls-7{isolation:isolate;}.cls-5,.cls-7{font-size:108px;}.cls-5{fill:#009ed2;font-family:OpenSans-Regular, Open Sans;}.cls-7{fill:#fff;font-family:OpenSans-Light, Open Sans;font-weight:300;}</style><linearGradient id="linear-gradient" x1="480.99" y1="98.31" x2="480.09" y2="96.82" gradientTransform="matrix(-47.27, 0, 0, 49.28, 22746.8, -4743.45)" gradientUnits="userSpaceOnUse"><stop offset="0" stop-color="#2b2873"/><stop offset="1" stop-color="#009ed1"/></linearGradient><linearGradient id="linear-gradient-2" x1="479.19" y1="98.58" x2="481.2" y2="98.58" gradientTransform="matrix(-47.27, 0, 0, 49.28, 22746.8, -4679.28)" xlink:href="#linear-gradient"/><linearGradient id="linear-gradient-3" x1="479.72" y1="96.88" x2="478.86" y2="98.3" gradientTransform="matrix(-47.27, 0, 0, 49.28, 22806.33, -4711.37)" gradientUnits="userSpaceOnUse"><stop offset="0" stop-color="#2c2772"/><stop offset="1" stop-color="#009ed1"/></linearGradient><radialGradient id="radial-gradient" cx="448.5" cy="52.39" r="0.71" gradientTransform="matrix(28.13, 0, 0, -26.58, -12529.19, 1507.14)" gradientUnits="userSpaceOnUse"><stop offset="0" stop-color="#baa415"/><stop offset="1" stop-color="#f7e200"/></radialGradient></defs><path id="Rectangle" class="cls-1" d="M0,77.35V21.7A21.7,21.7,0,0,1,32,2.6L83.61,30.42a21.7,21.7,0,0,1,0,38.21L32,96.45A21.71,21.71,0,0,1,0,77.35Z"/><path id="Rectangle-2" data-name="Rectangle" class="cls-2" d="M0,206.31V150.67a21.7,21.7,0,0,1,32-19.1l51.61,27.82a21.69,21.69,0,0,1,0,38.2L32,225.42A21.71,21.71,0,0,1,0,206.31Z"/><path id="Rectangle-3" data-name="Rectangle" class="cls-3" d="M119.67,141.83V86.19a21.7,21.7,0,0,1,32-19.11L203.29,94.9a21.71,21.71,0,0,1,0,38.21l-51.62,27.82a21.7,21.7,0,0,1-32-19.1Z"/><path id="Rectangle-4" data-name="Rectangle" class="cls-4" d="M106,107.25v14.14a21.69,21.69,0,0,1-32,19.1l-13.13-7.07a21.7,21.7,0,0,1,0-38.21L74,88.14a21.7,21.7,0,0,1,32,19.11Z"/><text class="cls-5" transform="translate(230.24 145.65)">ABLE</text><g id="view" class="cls-6"><text class="cls-5" transform="translate(488.5 145.65)">VIEW</text></g><text class="cls-7" transform="translate(770.92 145.65)">VISUALISATIONS</text></svg>