<?xml version="1.0" encoding="utf-8"?>
<!-- Generator: Adobe Illustrator 24.1.2, SVG Export Plug-In . SVG Version: 6.00 Build 0)  -->
<svg version="1.1" id="linkedin-icon" xmlns="http://www.w3.org/2000/svg" xmlns:xlink="http://www.w3.org/1999/xlink" x="0px"
	 y="0px" width="24" fill="#FFFFFF" height="24" viewBox="0 0 241.83 241.83" style="enable-background:new 0 0 241.83 241.83;" xml:space="preserve">
<path d="M3.72,241.83h50.23V79.99H3.72V241.83z M28.83,0C13.02,0,0,13.02,0,28.83s13.02,28.83,28.83,28.83s28.83-13.02,28.83-28.83
	S44.65,0,28.83,0z M181.37,76.27c-24.18,0-40.93,13.02-47.44,26.04h-0.93V79.99H84.64v161.84h50.23v-79.99
	c0-21.39,3.72-41.86,29.76-41.86s26.04,24.18,26.04,42.79v79.06h51.16v-88.36C241.83,109.75,232.53,76.27,181.37,76.27z"/>
</svg>
