<?xml version="1.0" encoding="utf-8"?>
<!-- Generator: Adobe Illustrator 24.1.2, SVG Export Plug-In . SVG Version: 6.00 Build 0)  -->
<svg version="1.1" id="medium-icon" xmlns="http://www.w3.org/2000/svg" xmlns:xlink="http://www.w3.org/1999/xlink" x="0px"
	 y="0px" width="24" height="24" fill="#FFFFFF" viewBox="0 0 284.02 236.17" style="enable-background:new 0 0 284.02 236.17;" xml:space="preserve">
<path d="M280.61,43.21c-0.06-0.05-0.1-0.09-0.17-0.13l-0.09-0.05L196.17,0.95c-0.57-0.29-1.16-0.47-1.77-0.63
	c-0.76-0.2-1.53-0.32-2.32-0.32c-3.23,0-6.44,1.62-8.17,4.44l-48.46,78.75l60.81,98.83l84.59-137.46
	C281.15,44.11,281.02,43.54,280.61,43.21z M108.77,154.9l79.68,39.84L108.77,65.26V154.9z M200.42,200.72l65.59,32.8
	c8.53,4.27,15.45,1.28,15.45-6.67V69.03L200.42,200.72z M94.94,43.34L12.72,2.24c-1.49-0.74-2.9-1.1-4.18-1.1
	c-3.6,0-6.13,2.78-6.13,7.46V186.1c0,4.75,3.48,10.38,7.73,12.5l72.41,36.2c1.86,0.93,3.63,1.37,5.22,1.37
	c4.5,0,7.65-3.48,7.65-9.33V44.15C95.44,43.81,95.24,43.49,94.94,43.34z"/>
</svg>
