<?xml version="1.0" encoding="utf-8"?>
<!-- Generator: Adobe Illustrator 24.1.2, SVG Export Plug-In . SVG Version: 6.00 Build 0)  -->
<svg version="1.1" id="Layer_1" focusable="false" xmlns="http://www.w3.org/2000/svg" xmlns:xlink="http://www.w3.org/1999/xlink"
	 x="0px" y="0px" width="24" height="24" viewBox="0 0 512 416.32" style="enable-background:new 0 0 512 416.32;" xml:space="preserve">
<style type="text/css">
	.st0{fill:#FFFFFF;}
</style>
<path class="st0" d="M160.83,416.32c193.2,0,298.92-160.22,298.92-298.92c0-4.51,0-9-0.2-13.52c20.58-14.91,38.34-33.36,52.45-54.5
	c-19.22,8.48-39.58,14.08-60.44,16.6c21.97-13.15,38.42-33.83,46.3-58.19c-20.64,12.23-43.24,20.81-66.79,25.37
	c-39.71-42.33-106.22-44.45-148.54-4.74c-21.18,19.87-33.19,47.61-33.19,76.65c0.05,8.07,0.94,16.11,2.66,24
	c-87.28-4.3-164.73-46.3-216.56-109.82C7.67,67.31,21.91,128.67,68,159.6c-16.65-0.58-32.93-5.07-47.53-13.11v1.43
	c0.04,49.99,35.23,93.06,84.21,103.06c-15.43,4.19-31.62,4.82-47.33,1.84c13.74,42.81,53.19,72.13,98.14,72.94
	c-37.2,29.25-83.17,45.13-130.49,45.08c-8.35,0.04-16.7-0.44-25-1.43c48.04,30.65,103.84,46.93,160.83,46.92"/>
</svg>
